<svg width="343" height="334" viewBox="0 0 343 334" fill="none" xmlns="http://www.w3.org/2000/svg">
<rect width="17" height="19" fill="#FFC03D" fill-opacity="0.29"/>
<rect x="131" width="17" height="19" fill="#FFC03D" fill-opacity="0.29"/>
<rect x="131" y="63" width="17" height="19" fill="#FFC03D" fill-opacity="0.29"/>
<rect x="131" y="126" width="17" height="19" fill="#FFC03D" fill-opacity="0.29"/>
<rect x="66" y="126" width="17" height="19" fill="#FFC03D" fill-opacity="0.29"/>
<rect y="126" width="17" height="19" fill="#FFC03D" fill-opacity="0.29"/>
<rect x="66" y="63" width="17" height="19" fill="#FFC03D" fill-opacity="0.29"/>
<rect y="63" width="17" height="19" fill="#FFC03D" fill-opacity="0.29"/>
<rect x="66" width="17" height="19" fill="#FFC03D" fill-opacity="0.29"/>
<rect x="196" y="189" width="17" height="19" fill="#FFC03D" fill-opacity="0.29"/>
<rect x="326" y="189" width="17" height="19" fill="#FFC03D" fill-opacity="0.29"/>
<rect x="326" y="252" width="17" height="19" fill="#FFC03D" fill-opacity="0.29"/>
<rect x="326" y="315" width="17" height="19" fill="#FFC03D" fill-opacity="0.29"/>
<rect x="261" y="315" width="17" height="19" fill="#FFC03D" fill-opacity="0.29"/>
<rect x="196" y="315" width="17" height="19" fill="#FFC03D" fill-opacity="0.29"/>
<rect x="261" y="252" width="17" height="19" fill="#FFC03D" fill-opacity="0.29"/>
<rect x="196" y="252" width="17" height="19" fill="#FFC03D" fill-opacity="0.29"/>
<rect x="261" y="189" width="17" height="19" fill="#FFC03D" fill-opacity="0.29"/>
<rect y="189" width="17" height="19" fill="#FFC03D" fill-opacity="0.29"/>
<rect x="131" y="189" width="17" height="19" fill="#FFC03D" fill-opacity="0.29"/>
<rect x="131" y="252" width="17" height="19" fill="#FFC03D" fill-opacity="0.29"/>
<rect x="131" y="315" width="17" height="19" fill="#FFC03D" fill-opacity="0.29"/>
<rect x="66" y="315" width="17" height="19" fill="#FFC03D" fill-opacity="0.29"/>
<rect y="315" width="17" height="19" fill="#FFC03D" fill-opacity="0.29"/>
<rect x="66" y="252" width="17" height="19" fill="#FFC03D" fill-opacity="0.29"/>
<rect y="252" width="17" height="19" fill="#FFC03D" fill-opacity="0.29"/>
<rect x="66" y="189" width="17" height="19" fill="#FFC03D" fill-opacity="0.29"/>
<rect x="196" width="17" height="19" fill="#FFC03D" fill-opacity="0.29"/>
<rect x="326" width="17" height="19" fill="#FFC03D" fill-opacity="0.29"/>
<rect x="326" y="63" width="17" height="19" fill="#FFC03D" fill-opacity="0.29"/>
<rect x="326" y="126" width="17" height="19" fill="#FFC03D" fill-opacity="0.29"/>
<rect x="261" y="126" width="17" height="19" fill="#FFC03D" fill-opacity="0.29"/>
<rect x="196" y="126" width="17" height="19" fill="#FFC03D" fill-opacity="0.29"/>
<rect x="261" y="63" width="17" height="19" fill="#FFC03D" fill-opacity="0.29"/>
<rect x="196" y="63" width="17" height="19" fill="#FFC03D" fill-opacity="0.29"/>
<rect x="261" width="17" height="19" fill="#FFC03D" fill-opacity="0.29"/>
</svg>
