<svg width="548" height="548" viewBox="0 0 548 548" fill="none" xmlns="http://www.w3.org/2000/svg">
<g clip-path="url(#clip0)">
<path d="M273.339 230.221C239.828 230.221 212.888 257.161 212.888 290.672C212.888 324.183 239.828 351.123 273.339 351.123C306.85 351.123 333.79 324.183 333.79 290.672C333.79 257.161 306.85 230.221 273.339 230.221Z" fill="#FF2532" fill-opacity="0.05"/>
<path d="M409.356 54.1252C324.593 6.15878 220.776 6.15878 136.67 54.1252C132.071 56.7535 128.785 62.0101 128.785 67.9238C128.785 70.5521 129.442 73.1804 130.756 75.1516L206.977 206.567C209.605 211.166 214.862 213.794 220.119 213.794C222.747 213.794 225.375 213.137 227.346 211.823C255.601 196.053 290.426 196.053 318.023 211.823C319.994 213.137 322.622 213.794 325.25 213.794C330.507 213.794 335.764 211.166 338.392 206.567L414.613 75.1516C418.555 67.9238 416.584 58.7247 409.356 54.1252Z" fill="#FF2532" fill-opacity="0.05"/>
<path d="M531.576 275.56H379.792C371.25 275.56 364.679 282.131 364.679 290.673C364.679 322.869 346.938 353.095 319.341 369.522C312.114 373.464 309.485 383.32 314.085 390.548L390.305 521.963C394.905 529.191 404.104 531.819 411.332 527.22C495.437 478.596 548.003 387.92 548.003 290.673C546.689 282.131 540.118 275.56 531.576 275.56Z" fill="#FF2532" fill-opacity="0.05"/>
<path d="M228.005 369.522C199.751 353.095 182.01 322.869 182.01 290.673C182.01 282.131 175.439 275.56 166.897 275.56H15.1127C6.57074 275.56 0 282.131 0 290.673C0 387.92 51.9089 477.939 136.014 527.22C138.643 528.534 141.271 529.848 143.899 529.848C149.156 529.848 154.412 527.22 157.041 522.62L233.261 391.205C237.861 383.32 235.233 374.121 228.005 369.522Z" fill="#FF2532" fill-opacity="0.05"/>
</g>
<defs>
<clipPath id="clip0">
<rect width="548" height="548" fill="white"/>
</clipPath>
</defs>
</svg>
